<svg width="24" height="24" viewBox="0 0 24 24" fill="none" xmlns="http://www.w3.org/2000/svg">
<path d="M13.3885 12.1349L20 12L13.3885 11.8651C12.7021 11.8511 12.1489 11.2979 12.1349 10.6115L12 4L11.8651 10.6115C11.8511 11.2979 11.2979 11.8511 10.6115 11.8651L4 12L10.6115 12.1349C11.2979 12.1489 11.8511 12.7021 11.8651 13.3885L12 20L12.1349 13.3885C12.1489 12.7021 12.7021 12.1489 13.3885 12.1349Z" fill="white" stroke="white"/>
<path d="M13.0773 11.1133L17.6569 6.34291L12.8864 10.9225C12.3911 11.398 11.6089 11.398 11.1136 10.9225L6.34315 6.34291L10.9227 11.1133C11.3982 11.6086 11.3982 12.3909 10.9227 12.8862L6.34315 17.6566L11.1136 13.077C11.6089 12.6015 12.3911 12.6015 12.8864 13.077L17.6569 17.6566L13.0773 12.8862C12.6018 12.3909 12.6018 11.6086 13.0773 11.1133Z" fill="white" stroke="white"/>
</svg>
