<svg width="1180" height="480" viewBox="0 0 1180 480" fill="none" xmlns="http://www.w3.org/2000/svg">
<path d="M39 10H1113C257.5 10 39 10 39 104V10Z" stroke="white" stroke-width="0.5"/>
<path d="M39 104H786C190.974 104 39 104 39 198V104Z" stroke="white" stroke-width="0.5"/>
<path d="M39 198H319C95.9646 198 39 198 39 292V198Z" stroke="white" stroke-width="0.5"/>
<path d="M39 292H109C53.2412 292 39 292 39 386V292Z" stroke="white" stroke-width="0.5"/>
<path d="M39 386H62C43.6792 386 39 386 39 480V386Z" stroke="white" stroke-width="0.5"/>
<path d="M1124.11 13.6797H1126.56V4.86719L1123.62 6.28125V4.76562L1126.55 3.375H1128.12V13.6797H1130.55V15H1124.11V13.6797ZM1133.75 13.6797H1136.2V4.86719L1133.27 6.28125V4.76562L1136.19 3.375H1137.77V13.6797H1140.19V15H1133.75V13.6797ZM1155.73 9.46094C1155.03 9.46094 1154.49 9.65885 1154.1 10.0547C1153.72 10.4453 1153.53 11 1153.53 11.7188C1153.53 12.4375 1153.72 12.9974 1154.11 13.3984C1154.5 13.7943 1155.04 13.9922 1155.73 13.9922C1156.44 13.9922 1156.99 13.7969 1157.37 13.4062C1157.75 13.0104 1157.95 12.4479 1157.95 11.7188C1157.95 11.0052 1157.75 10.4505 1157.36 10.0547C1156.97 9.65885 1156.43 9.46094 1155.73 9.46094ZM1154.36 8.80469C1153.69 8.63281 1153.16 8.3125 1152.78 7.84375C1152.41 7.375 1152.22 6.8099 1152.22 6.14844C1152.22 5.22135 1152.53 4.48698 1153.16 3.94531C1153.79 3.39844 1154.65 3.125 1155.73 3.125C1156.82 3.125 1157.68 3.39844 1158.31 3.94531C1158.94 4.48698 1159.26 5.22135 1159.26 6.14844C1159.26 6.8099 1159.07 7.375 1158.69 7.84375C1158.31 8.3125 1157.79 8.63281 1157.12 8.80469C1157.9 8.97656 1158.49 9.32292 1158.91 9.84375C1159.32 10.3646 1159.53 11.0391 1159.53 11.8672C1159.53 12.9193 1159.2 13.7422 1158.52 14.3359C1157.85 14.9297 1156.92 15.2266 1155.73 15.2266C1154.55 15.2266 1153.62 14.9323 1152.95 14.3438C1152.28 13.75 1151.95 12.9297 1151.95 11.8828C1151.95 11.0495 1152.15 10.3724 1152.56 9.85156C1152.98 9.32552 1153.58 8.97656 1154.36 8.80469ZM1153.79 6.29688C1153.79 6.92188 1153.96 7.39844 1154.29 7.72656C1154.62 8.05469 1155.1 8.21875 1155.73 8.21875C1156.37 8.21875 1156.85 8.05469 1157.19 7.72656C1157.52 7.39844 1157.69 6.92188 1157.69 6.29688C1157.69 5.66146 1157.52 5.17708 1157.19 4.84375C1156.86 4.51042 1156.38 4.34375 1155.73 4.34375C1155.1 4.34375 1154.62 4.51302 1154.29 4.85156C1153.96 5.1849 1153.79 5.66667 1153.79 6.29688ZM1163.48 13.6719H1168.84V15H1161.75V13.6719C1162.72 12.6458 1163.58 11.7396 1164.3 10.9531C1165.03 10.1667 1165.54 9.61198 1165.81 9.28906C1166.33 8.65365 1166.68 8.14062 1166.87 7.75C1167.05 7.35417 1167.14 6.95052 1167.14 6.53906C1167.14 5.88802 1166.95 5.3776 1166.56 5.00781C1166.18 4.63802 1165.66 4.45312 1164.99 4.45312C1164.52 4.45312 1164.02 4.53906 1163.5 4.71094C1162.98 4.88281 1162.43 5.14323 1161.84 5.49219V3.89844C1162.38 3.64323 1162.91 3.45052 1163.42 3.32031C1163.94 3.1901 1164.46 3.125 1164.96 3.125C1166.1 3.125 1167.02 3.42969 1167.71 4.03906C1168.41 4.64323 1168.76 5.4375 1168.76 6.42188C1168.76 6.92188 1168.64 7.42188 1168.41 7.92188C1168.18 8.42188 1167.8 8.97396 1167.28 9.57812C1166.99 9.91667 1166.57 10.3854 1166.01 10.9844C1165.46 11.5833 1164.61 12.4792 1163.48 13.6719ZM1174.86 9.82812C1175.53 9.82812 1176.06 9.58594 1176.44 9.10156C1176.82 8.61719 1177.02 7.94792 1177.02 7.09375C1177.02 6.23958 1176.82 5.57031 1176.44 5.08594C1176.06 4.60156 1175.53 4.35938 1174.86 4.35938C1174.16 4.35938 1173.64 4.59115 1173.28 5.05469C1172.93 5.51302 1172.75 6.19271 1172.75 7.09375C1172.75 8 1172.92 8.68229 1173.27 9.14062C1173.63 9.59896 1174.16 9.82812 1174.86 9.82812ZM1172.05 14.7578V13.3047C1172.38 13.4974 1172.72 13.6458 1173.09 13.75C1173.46 13.849 1173.85 13.8984 1174.25 13.8984C1175.25 13.8984 1176.01 13.5234 1176.52 12.7734C1177.03 12.0182 1177.29 10.9089 1177.29 9.44531C1177.04 9.96615 1176.7 10.3672 1176.26 10.6484C1175.82 10.9245 1175.31 11.0625 1174.73 11.0625C1173.61 11.0625 1172.74 10.7161 1172.12 10.0234C1171.5 9.33073 1171.2 8.34896 1171.2 7.07812C1171.2 5.82292 1171.51 4.85156 1172.14 4.16406C1172.78 3.47135 1173.67 3.125 1174.83 3.125C1176.18 3.125 1177.17 3.61198 1177.8 4.58594C1178.43 5.5599 1178.75 7.09115 1178.75 9.17969C1178.75 11.1432 1178.37 12.6432 1177.61 13.6797C1176.85 14.7109 1175.76 15.2266 1174.31 15.2266C1173.93 15.2266 1173.55 15.1849 1173.16 15.1016C1172.78 15.0234 1172.41 14.9089 1172.05 14.7578Z" fill="white"/>
<path d="M9.49219 79.9062C9.59636 79.5 9.79427 79.1536 10.0859 78.8672C10.3724 78.5807 10.9479 78.224 11.8125 77.7969L15 76.2109L15 77.9062L12.0547 79.2969C11.2161 79.6979 10.6771 80.0599 10.4375 80.3828C10.1927 80.7005 10.0703 81.1172 10.0703 81.6328L10.0703 83.1406L15 83.1406L15 84.7266L3.33594 84.7266L3.33594 81.4766C3.33594 80.1953 3.625 79.2135 4.20313 78.5312C4.78125 77.849 5.61719 77.5078 6.71094 77.5078C7.48177 77.5078 8.11198 77.7187 8.60157 78.1406C9.08594 78.5573 9.38282 79.1458 9.49219 79.9062ZM4.63282 83.1406L8.77344 83.1406L8.77344 81.4141C8.77344 80.6589 8.60417 80.0964 8.26563 79.7266C7.92709 79.3568 7.40886 79.1719 6.71094 79.1719C6.03907 79.1719 5.52604 79.3698 5.17188 79.7656C4.8125 80.1562 4.63282 80.7266 4.63282 81.4766L4.63282 83.1406ZM11.6875 74.6797L6.26563 74.6797L6.26563 73.2422L11.6875 73.2422C12.474 73.2422 13.0521 73.1042 13.4219 72.8281C13.7917 72.5469 13.9766 72.1146 13.9766 71.5312C13.9766 70.8542 13.7396 70.3359 13.2656 69.9766C12.7865 69.6172 12.1016 69.4375 11.2109 69.4375L6.26563 69.4375L6.26563 67.9922L15 67.9922L15 69.4375L13.6875 69.4375C14.1927 69.6927 14.5755 70.0417 14.8359 70.4844C15.0964 70.9219 15.2266 71.4349 15.2266 72.0234C15.2266 72.9193 14.9349 73.5859 14.3516 74.0234C13.763 74.4609 12.875 74.6797 11.6875 74.6797ZM6.55469 58.9609L7.96094 58.9609C7.72136 59.3724 7.54167 59.7865 7.42188 60.2031C7.30209 60.6198 7.24219 61.0443 7.24219 61.4766C7.24219 62.1276 7.34896 62.6146 7.5625 62.9375C7.77084 63.2552 8.09115 63.4141 8.52344 63.4141C8.91406 63.4141 9.20573 63.2943 9.39844 63.0547C9.59115 62.8151 9.77865 62.2187 9.96094 61.2656L10.0703 60.6875C10.2057 59.974 10.4766 59.4349 10.8828 59.0703C11.2891 58.7005 11.8177 58.5156 12.4688 58.5156C13.3333 58.5156 14.0104 58.8229 14.5 59.4375C14.9844 60.0521 15.2266 60.9062 15.2266 62C15.2266 62.4323 15.1797 62.8854 15.0859 63.3594C14.9974 63.8333 14.862 64.3464 14.6797 64.8984L13.1953 64.8984C13.4714 64.362 13.6797 63.849 13.8203 63.3594C13.9557 62.8698 14.0234 62.4062 14.0234 61.9687C14.0234 61.3333 13.8958 60.8411 13.6406 60.4922C13.3802 60.1432 13.0182 59.9687 12.5547 59.9687C11.888 59.9687 11.4271 60.6068 11.1719 61.8828L11.1563 61.9453L11.0469 62.4844C10.8854 63.3125 10.6146 63.9167 10.2344 64.2969C9.84896 64.6771 9.32552 64.8672 8.66406 64.8672C7.82552 64.8672 7.17969 64.5833 6.72656 64.0156C6.26823 63.4479 6.03906 62.638 6.03906 61.5859C6.03906 61.1172 6.08334 60.6667 6.17188 60.2344C6.25521 59.8021 6.38281 59.3776 6.55469 58.9609ZM6.55469 49.3203L7.96094 49.3203C7.72136 49.7318 7.54167 50.1458 7.42188 50.5625C7.30208 50.9792 7.24219 51.4036 7.24219 51.8359C7.24219 52.487 7.34896 52.974 7.5625 53.2969C7.77083 53.6146 8.09115 53.7734 8.52344 53.7734C8.91406 53.7734 9.20573 53.6536 9.39844 53.4141C9.59115 53.1745 9.77865 52.5781 9.96094 51.625L10.0703 51.0469C10.2057 50.3333 10.4766 49.7943 10.8828 49.4297C11.2891 49.0599 11.8177 48.875 12.4688 48.875C13.3333 48.875 14.0104 49.1823 14.5 49.7969C14.9844 50.4115 15.2266 51.2656 15.2266 52.3594C15.2266 52.7917 15.1797 53.2448 15.0859 53.7187C14.9974 54.1927 14.862 54.7057 14.6797 55.2578L13.1953 55.2578C13.4714 54.7214 13.6797 54.2083 13.8203 53.7187C13.9557 53.2292 14.0234 52.7656 14.0234 52.3281C14.0234 51.6927 13.8958 51.2005 13.6406 50.8516C13.3802 50.5026 13.0182 50.3281 12.5547 50.3281C11.888 50.3281 11.4271 50.9661 11.1719 52.2422L11.1563 52.3047L11.0469 52.8437C10.8854 53.6719 10.6146 54.276 10.2344 54.6562C9.84896 55.0365 9.32552 55.2266 8.66406 55.2266C7.82552 55.2266 7.17969 54.9427 6.72656 54.375C6.26823 53.8073 6.03906 52.9974 6.03906 51.9453C6.03906 51.4766 6.08333 51.026 6.17188 50.5937C6.25521 50.1615 6.38281 49.737 6.55469 49.3203ZM6.28125 44.8125L6.28125 41.1328L13.8828 41.1328L13.8828 38.2812L15 38.2812L15 45.4219L13.8828 45.4219L13.8828 42.5703L7.39844 42.5703L7.39844 44.8125L6.28125 44.8125ZM2.88281 42.5703L2.88281 41.1328L4.69531 41.1328L4.69531 42.5703L2.88281 42.5703ZM10.6016 32.1562L10.6016 32.6328C10.6016 33.4714 10.75 34.1042 11.0469 34.5312C11.3385 34.9531 11.776 35.1641 12.3594 35.1641C12.8854 35.1641 13.2943 35.0052 13.5859 34.6875C13.8776 34.3698 14.0234 33.9297 14.0234 33.3672C14.0234 32.5755 13.75 31.9531 13.2031 31.5C12.651 31.0469 11.8906 30.8177 10.9219 30.8125L10.6016 30.8125L10.6016 32.1562ZM10.0078 29.3672L15 29.3672L15 30.8125L13.7031 30.8125C14.224 31.1198 14.6094 31.5078 14.8594 31.9766C15.1042 32.4401 15.2266 33.0052 15.2266 33.6719C15.2266 34.5625 14.9766 35.2734 14.4766 35.8047C13.9714 36.3359 13.2969 36.6016 12.4531 36.6016C11.4792 36.6016 10.7396 36.276 10.2344 35.625C9.72917 34.9687 9.47656 34.0078 9.47656 32.7422L9.47656 30.8125L9.25 30.8125C8.55208 30.8177 8.04688 30.9948 7.73438 31.3437C7.41667 31.6927 7.25781 32.25 7.25781 33.0156C7.25781 33.5052 7.32813 34 7.46875 34.5C7.60938 35 7.8151 35.487 8.08594 35.9609L6.64844 35.9609C6.44531 35.4297 6.29427 34.9219 6.19531 34.4375C6.09115 33.9479 6.03906 33.474 6.03906 33.0156C6.03906 32.2917 6.14583 31.6745 6.35938 31.1641C6.57292 30.6484 6.89323 30.2318 7.32031 29.9141C7.58073 29.7161 7.90365 29.5755 8.28906 29.4922C8.66927 29.4089 9.24219 29.3672 10.0078 29.3672Z" fill="white"/>
<path d="M10.5234 164.773L3.33594 164.773L3.33594 163.187L11.2422 163.187C11.8099 163.187 12.2161 163.172 12.4609 163.141C12.7005 163.109 12.8854 163.055 13.0156 162.977C13.3229 162.81 13.5547 162.57 13.7109 162.258C13.8672 161.94 13.9453 161.557 13.9453 161.109C13.9453 160.656 13.8672 160.273 13.7109 159.961C13.5547 159.648 13.3229 159.406 13.0156 159.234C12.8854 159.156 12.7005 159.102 12.4609 159.07C12.2214 159.039 11.8203 159.023 11.2578 159.023L3.33594 159.023L3.33594 157.445L10.5234 157.445C11.7161 157.445 12.5651 157.521 13.0703 157.672C13.5703 157.818 13.9844 158.073 14.3125 158.437C14.6198 158.781 14.849 159.174 15 159.617C15.151 160.06 15.2266 160.557 15.2266 161.109C15.2266 161.656 15.151 162.151 15 162.594C14.849 163.036 14.6198 163.432 14.3125 163.781C13.9896 164.141 13.5729 164.396 13.0625 164.547C12.5469 164.698 11.7005 164.773 10.5234 164.773ZM3.73438 148.375L5.33594 148.375C5.02865 148.854 4.79688 149.336 4.64063 149.82C4.48438 150.299 4.40625 150.784 4.40625 151.273C4.40625 152.018 4.58073 152.607 4.92969 153.039C5.27344 153.471 5.73959 153.687 6.32813 153.687C6.84375 153.687 7.23698 153.547 7.50781 153.266C7.77865 152.979 8.00521 152.448 8.1875 151.672L8.375 150.844C8.63021 149.75 9.03125 148.953 9.57813 148.453C10.125 147.953 10.8698 147.703 11.8125 147.703C12.9219 147.703 13.7682 148.047 14.3516 148.734C14.9349 149.422 15.2266 150.422 15.2266 151.734C15.2266 152.281 15.1667 152.831 15.0469 153.383C14.9323 153.935 14.7578 154.49 14.5234 155.047L12.8438 155.047C13.224 154.448 13.5026 153.883 13.6797 153.352C13.8568 152.815 13.9453 152.276 13.9453 151.734C13.9453 150.937 13.7682 150.318 13.4141 149.875C13.0547 149.432 12.5547 149.211 11.9141 149.211C11.3307 149.211 10.8854 149.365 10.5781 149.672C10.2708 149.974 10.0339 150.503 9.86719 151.258L9.67188 152.102C9.42709 153.185 9.05729 153.971 8.5625 154.461C8.06771 154.951 7.40365 155.195 6.57031 155.195C5.52865 155.195 4.69531 154.846 4.07031 154.148C3.44011 153.445 3.125 152.513 3.125 151.352C3.125 150.904 3.17709 150.432 3.28125 149.937C3.38021 149.443 3.53125 148.922 3.73438 148.375ZM4.72656 141.828L10.6953 143.492L10.6953 140.164L4.72656 141.828ZM3.33594 142.781L3.33594 140.867L15 137.297L15 138.93L11.9609 139.789L11.9609 143.875L15 144.719L15 146.352L3.33594 142.781Z" fill="white"/>
<path d="M14.5859 260.82C14.7995 261.221 14.9583 261.633 15.0625 262.055C15.1719 262.477 15.2266 262.924 15.2266 263.398C15.2266 264.893 14.6979 266.055 13.6406 266.883C12.5833 267.706 11.0964 268.117 9.17969 268.117C7.27344 268.117 5.78907 267.703 4.72657 266.875C3.65886 266.042 3.125 264.883 3.125 263.398C3.125 262.924 3.17969 262.477 3.28907 262.055C3.39323 261.633 3.55209 261.221 3.76563 260.82L5.38281 260.82C5.06511 261.206 4.82292 261.62 4.65625 262.062C4.48959 262.505 4.40625 262.951 4.40625 263.398C4.40625 264.424 4.80209 265.193 5.59375 265.703C6.38542 266.214 7.58073 266.469 9.17969 266.469C10.7734 266.469 11.9661 266.214 12.7578 265.703C13.5495 265.193 13.9453 264.424 13.9453 263.398C13.9453 262.94 13.862 262.492 13.6953 262.055C13.5286 261.612 13.2865 261.201 12.9688 260.82L14.5859 260.82ZM9.57813 251.352L15 251.352L15 252.797L9.57813 252.797C8.79167 252.797 8.21354 252.935 7.84375 253.211C7.47396 253.487 7.28906 253.919 7.28906 254.508C7.28906 255.18 7.52865 255.698 8.00781 256.062C8.48177 256.422 9.16406 256.602 10.0547 256.602L15 256.602L15 258.039L2.84375 258.039L2.84375 256.602L7.5625 256.602C7.0625 256.346 6.6849 256 6.42969 255.562C6.16927 255.125 6.03906 254.607 6.03906 254.008C6.03906 253.117 6.33334 252.453 6.92188 252.016C7.50521 251.573 8.39063 251.352 9.57813 251.352ZM6.28125 247.453L6.28125 243.773L13.8828 243.773L13.8828 240.922L15 240.922L15 248.062L13.8828 248.062L13.8828 245.211L7.39844 245.211L7.39844 247.453L6.28125 247.453ZM2.88281 245.211L2.88281 243.773L4.69531 243.773L4.69531 245.211L2.88281 245.211ZM9.57813 232.07L15 232.07L15 233.516L9.57813 233.516C8.79167 233.516 8.21354 233.654 7.84375 233.93C7.47396 234.206 7.28906 234.638 7.28906 235.227C7.28906 235.898 7.52865 236.417 8.00781 236.781C8.48177 237.141 9.16406 237.32 10.0547 237.32L15 237.32L15 238.758L6.25 238.758L6.25 237.32L7.5625 237.32C7.0625 237.065 6.6849 236.719 6.42969 236.281C6.16927 235.844 6.03906 235.326 6.03906 234.727C6.03906 233.836 6.33333 233.172 6.92188 232.734C7.50521 232.292 8.39063 232.07 9.57813 232.07ZM10.6016 225.156L10.6016 225.633C10.6016 226.471 10.75 227.104 11.0469 227.531C11.3385 227.953 11.776 228.164 12.3594 228.164C12.8854 228.164 13.2943 228.005 13.5859 227.687C13.8776 227.37 14.0234 226.93 14.0234 226.367C14.0234 225.576 13.75 224.953 13.2031 224.5C12.651 224.047 11.8906 223.818 10.9219 223.812L10.6016 223.812L10.6016 225.156ZM10.0078 222.367L15 222.367L15 223.812L13.7031 223.812C14.224 224.12 14.6094 224.508 14.8594 224.977C15.1042 225.44 15.2266 226.005 15.2266 226.672C15.2266 227.562 14.9766 228.273 14.4766 228.805C13.9714 229.336 13.2969 229.602 12.4531 229.602C11.4792 229.602 10.7396 229.276 10.2344 228.625C9.72917 227.969 9.47656 227.008 9.47656 225.742L9.47656 223.812L9.25 223.812C8.55208 223.818 8.04688 223.995 7.73438 224.344C7.41667 224.693 7.25781 225.25 7.25781 226.016C7.25781 226.505 7.32813 227 7.46875 227.5C7.60938 228 7.81511 228.487 8.08594 228.961L6.64844 228.961C6.44531 228.43 6.29427 227.922 6.19531 227.437C6.09115 226.948 6.03906 226.474 6.03906 226.016C6.03906 225.292 6.14583 224.674 6.35938 224.164C6.57292 223.648 6.89323 223.232 7.32031 222.914C7.58073 222.716 7.90365 222.576 8.28906 222.492C8.66927 222.409 9.24219 222.367 10.0078 222.367Z" fill="white"/>
<path d="M3.33594 366.023L3.33594 359.156L4.66406 359.156L4.66407 364.437L7.78907 364.437L7.78906 359.648L9.11719 359.648L9.11719 364.437L15 364.437L15 366.023L3.33594 366.023ZM8.05469 349.18C7.81511 349.487 7.64063 349.799 7.53125 350.117C7.42188 350.435 7.36719 350.784 7.36719 351.164C7.36719 352.06 7.64844 352.745 8.21094 353.219C8.77344 353.693 9.58594 353.93 10.6484 353.93L15 353.93L15 355.375L6.25 355.375L6.25 353.93L7.96094 353.93C7.34115 353.69 6.86719 353.323 6.53906 352.828C6.20573 352.328 6.03906 351.737 6.03906 351.055C6.03906 350.701 6.08334 350.37 6.17188 350.062C6.26042 349.755 6.39844 349.461 6.58594 349.18L8.05469 349.18ZM10.6016 343.078L10.6016 343.555C10.6016 344.393 10.75 345.026 11.0469 345.453C11.3385 345.875 11.776 346.086 12.3594 346.086C12.8854 346.086 13.2943 345.927 13.5859 345.609C13.8776 345.292 14.0234 344.852 14.0234 344.289C14.0234 343.497 13.75 342.875 13.2031 342.422C12.651 341.969 11.8906 341.74 10.9219 341.734L10.6016 341.734L10.6016 343.078ZM10.0078 340.289L15 340.289L15 341.734L13.7031 341.734C14.224 342.042 14.6094 342.43 14.8594 342.898C15.1042 343.362 15.2266 343.927 15.2266 344.594C15.2266 345.484 14.9766 346.195 14.4766 346.727C13.9714 347.258 13.2969 347.523 12.4531 347.523C11.4792 347.523 10.7396 347.198 10.2344 346.547C9.72917 345.891 9.47656 344.93 9.47656 343.664L9.47656 341.734L9.25 341.734C8.55209 341.74 8.04688 341.917 7.73438 342.266C7.41667 342.615 7.25781 343.172 7.25781 343.937C7.25781 344.427 7.32813 344.922 7.46875 345.422C7.60938 345.922 7.81511 346.409 8.08594 346.883L6.64844 346.883C6.44531 346.352 6.29427 345.844 6.19531 345.359C6.09115 344.87 6.03906 344.396 6.03906 343.937C6.03906 343.214 6.14584 342.596 6.35938 342.086C6.57292 341.57 6.89323 341.154 7.32031 340.836C7.58073 340.638 7.90365 340.497 8.28906 340.414C8.66927 340.331 9.24219 340.289 10.0078 340.289ZM9.57813 330.711L15 330.711L15 332.156L9.57813 332.156C8.79167 332.156 8.21354 332.294 7.84375 332.57C7.47396 332.846 7.28906 333.279 7.28906 333.867C7.28906 334.539 7.52865 335.057 8.00781 335.422C8.48177 335.781 9.16406 335.961 10.0547 335.961L15 335.961L15 337.398L6.25 337.398L6.25 335.961L7.5625 335.961C7.0625 335.706 6.6849 335.359 6.42969 334.922C6.16927 334.484 6.03906 333.966 6.03906 333.367C6.03906 332.477 6.33333 331.812 6.92188 331.375C7.50521 330.932 8.39063 330.711 9.57813 330.711ZM14.5547 320.992C14.7786 321.378 14.9453 321.776 15.0547 322.187C15.1693 322.594 15.2266 323.01 15.2266 323.437C15.2266 324.792 14.8203 325.852 14.0078 326.617C13.1953 327.378 12.0703 327.758 10.6328 327.758C9.19531 327.758 8.07031 327.378 7.25781 326.617C6.44531 325.852 6.03906 324.792 6.03906 323.437C6.03906 323.016 6.09375 322.604 6.20313 322.203C6.3125 321.802 6.48177 321.398 6.71094 320.992L8.21875 320.992C7.88021 321.372 7.63542 321.755 7.48438 322.141C7.33333 322.521 7.25781 322.953 7.25781 323.437C7.25781 324.339 7.54948 325.031 8.13281 325.516C8.71615 326 9.54948 326.242 10.6328 326.242C11.7109 326.242 12.5443 326 13.1328 325.516C13.7161 325.026 14.0078 324.333 14.0078 323.437C14.0078 322.937 13.9323 322.49 13.7813 322.094C13.625 321.698 13.3854 321.331 13.0625 320.992L14.5547 320.992ZM9.90625 310.891L10.6094 310.891L10.6094 317.117L10.6563 317.117C11.849 317.159 12.7057 316.932 13.2266 316.437C13.7474 315.937 14.0078 315.234 14.0078 314.328C14.0078 313.87 13.9349 313.391 13.7891 312.891C13.6432 312.391 13.4219 311.857 13.125 311.289L14.5547 311.289C14.7786 311.836 14.9453 312.365 15.0547 312.875C15.1693 313.38 15.2266 313.87 15.2266 314.344C15.2266 315.703 14.8203 316.766 14.0078 317.531C13.1901 318.297 12.0651 318.68 10.6328 318.68C9.23698 318.68 8.1224 318.305 7.28906 317.555C6.45573 316.805 6.03906 315.805 6.03906 314.555C6.03906 313.44 6.41667 312.562 7.17188 311.922C7.92708 311.276 8.83854 310.932 9.90625 310.891ZM9.48438 312.328C8.88021 312.391 8.35938 312.612 7.92188 312.992C7.47917 313.367 7.25781 313.909 7.25781 314.617C7.25781 315.31 7.48698 315.88 7.94531 316.328C8.40365 316.776 8.91927 317.021 9.49219 317.062L9.48438 312.328Z" fill="white"/>
<path d="M14.5234 456.352L12.6797 456.352C13.1016 455.878 13.4193 455.388 13.6328 454.883C13.8411 454.378 13.9453 453.854 13.9453 453.312C13.9453 452.568 13.7526 452.049 13.3672 451.758C12.9766 451.461 12.2526 451.312 11.1953 451.312L4.66407 451.312L4.66407 454.289L3.33594 454.289L3.33594 449.734L11.1953 449.734C12.6641 449.734 13.7031 450.01 14.3125 450.562C14.9219 451.109 15.2266 452.026 15.2266 453.312C15.2266 453.812 15.1693 454.31 15.0547 454.805C14.9401 455.299 14.763 455.815 14.5234 456.352ZM10.6016 442.078L10.6016 442.555C10.6016 443.393 10.75 444.026 11.0469 444.453C11.3385 444.875 11.776 445.086 12.3594 445.086C12.8854 445.086 13.2943 444.927 13.5859 444.609C13.8776 444.292 14.0234 443.852 14.0234 443.289C14.0234 442.497 13.75 441.875 13.2031 441.422C12.651 440.969 11.8906 440.74 10.9219 440.734L10.6016 440.734L10.6016 442.078ZM10.0078 439.289L15 439.289L15 440.734L13.7031 440.734C14.224 441.042 14.6094 441.43 14.8594 441.898C15.1042 442.362 15.2266 442.927 15.2266 443.594C15.2266 444.484 14.9766 445.195 14.4766 445.727C13.9714 446.258 13.2969 446.523 12.4531 446.523C11.4792 446.523 10.7396 446.198 10.2344 445.547C9.72917 444.891 9.47656 443.93 9.47656 442.664L9.47656 440.734L9.25 440.734C8.55209 440.74 8.04688 440.917 7.73438 441.266C7.41667 441.615 7.25781 442.172 7.25781 442.937C7.25781 443.427 7.32813 443.922 7.46875 444.422C7.60938 444.922 7.81511 445.409 8.08594 445.883L6.64844 445.883C6.44531 445.352 6.29427 444.844 6.19531 444.359C6.09115 443.87 6.03906 443.396 6.03906 442.937C6.03906 442.214 6.14584 441.596 6.35938 441.086C6.57292 440.57 6.89323 440.154 7.32031 439.836C7.58073 439.638 7.90365 439.497 8.28906 439.414C8.66927 439.331 9.24219 439.289 10.0078 439.289ZM13.8984 434.992L18.3281 434.992L18.3281 436.437L6.25 436.437L6.25 434.992L7.36719 434.992C6.9349 434.753 6.60677 434.435 6.38281 434.039C6.15365 433.638 6.03906 433.177 6.03906 432.656C6.03906 431.599 6.44792 430.771 7.26563 430.172C8.08333 429.568 9.21615 429.266 10.6641 429.266C12.0859 429.266 13.2031 429.568 14.0156 430.172C14.8229 430.776 15.2266 431.604 15.2266 432.656C15.2266 433.187 15.1146 433.654 14.8906 434.055C14.6615 434.451 14.3307 434.763 13.8984 434.992ZM10.6328 430.773C9.51823 430.773 8.67709 430.951 8.10938 431.305C7.54167 431.654 7.25781 432.174 7.25781 432.867C7.25781 433.565 7.54427 434.094 8.11719 434.453C8.6849 434.812 9.52344 434.992 10.6328 434.992C11.737 434.992 12.5755 434.812 13.1484 434.453C13.7214 434.094 14.0078 433.565 14.0078 432.867C14.0078 432.174 13.724 431.654 13.1563 431.305C12.5885 430.951 11.7474 430.773 10.6328 430.773ZM10.6016 422.797L10.6016 423.273C10.6016 424.112 10.75 424.745 11.0469 425.172C11.3385 425.594 11.776 425.805 12.3594 425.805C12.8854 425.805 13.2943 425.646 13.5859 425.328C13.8776 425.01 14.0234 424.57 14.0234 424.008C14.0234 423.216 13.75 422.594 13.2031 422.141C12.651 421.687 11.8906 421.458 10.9219 421.453L10.6016 421.453L10.6016 422.797ZM10.0078 420.008L15 420.008L15 421.453L13.7031 421.453C14.224 421.76 14.6094 422.148 14.8594 422.617C15.1042 423.081 15.2266 423.646 15.2266 424.312C15.2266 425.203 14.9766 425.914 14.4766 426.445C13.9714 426.977 13.2969 427.242 12.4531 427.242C11.4792 427.242 10.7396 426.917 10.2344 426.266C9.72917 425.609 9.47656 424.648 9.47656 423.383L9.47656 421.453L9.25 421.453C8.55208 421.458 8.04688 421.635 7.73438 421.984C7.41667 422.333 7.25781 422.891 7.25781 423.656C7.25781 424.146 7.32813 424.641 7.46875 425.141C7.60938 425.641 7.81511 426.128 8.08594 426.602L6.64844 426.602C6.44531 426.07 6.29427 425.562 6.19531 425.078C6.09115 424.589 6.03906 424.115 6.03906 423.656C6.03906 422.932 6.14583 422.315 6.35938 421.805C6.57292 421.289 6.89323 420.872 7.32031 420.555C7.58073 420.357 7.90365 420.216 8.28906 420.133C8.66927 420.049 9.24219 420.008 10.0078 420.008ZM9.57813 410.43L15 410.43L15 411.875L9.57813 411.875C8.79167 411.875 8.21354 412.013 7.84375 412.289C7.47396 412.565 7.28906 412.997 7.28906 413.586C7.28906 414.258 7.52865 414.776 8.00781 415.141C8.48177 415.5 9.16406 415.68 10.0547 415.68L15 415.68L15 417.117L6.25 417.117L6.25 415.68L7.5625 415.68C7.0625 415.424 6.6849 415.078 6.42969 414.641C6.16927 414.203 6.03906 413.685 6.03906 413.086C6.03906 412.195 6.33333 411.531 6.92188 411.094C7.50521 410.651 8.39063 410.43 9.57813 410.43Z" fill="white"/>
<path d="M799.742 98.7734L796.062 104.938H799.742V98.7734ZM799.484 97.3359H801.312V104.938H802.867V106.219H801.312V109H799.742V106.219H794.797V104.727L799.484 97.3359ZM808.453 103.461C807.75 103.461 807.206 103.659 806.82 104.055C806.44 104.445 806.25 105 806.25 105.719C806.25 106.438 806.443 106.997 806.828 107.398C807.219 107.794 807.76 107.992 808.453 107.992C809.161 107.992 809.706 107.797 810.086 107.406C810.471 107.01 810.664 106.448 810.664 105.719C810.664 105.005 810.469 104.451 810.078 104.055C809.693 103.659 809.151 103.461 808.453 103.461ZM807.078 102.805C806.406 102.633 805.88 102.312 805.5 101.844C805.125 101.375 804.938 100.81 804.938 100.148C804.938 99.2214 805.253 98.487 805.883 97.9453C806.513 97.3984 807.37 97.125 808.453 97.125C809.542 97.125 810.401 97.3984 811.031 97.9453C811.661 98.487 811.977 99.2214 811.977 100.148C811.977 100.81 811.786 101.375 811.406 101.844C811.031 102.312 810.508 102.633 809.836 102.805C810.617 102.977 811.214 103.323 811.625 103.844C812.042 104.365 812.25 105.039 812.25 105.867C812.25 106.919 811.914 107.742 811.242 108.336C810.57 108.93 809.641 109.227 808.453 109.227C807.266 109.227 806.336 108.932 805.664 108.344C804.997 107.75 804.664 106.93 804.664 105.883C804.664 105.049 804.87 104.372 805.281 103.852C805.698 103.326 806.297 102.977 807.078 102.805ZM806.508 100.297C806.508 100.922 806.674 101.398 807.008 101.727C807.341 102.055 807.823 102.219 808.453 102.219C809.089 102.219 809.573 102.055 809.906 101.727C810.24 101.398 810.406 100.922 810.406 100.297C810.406 99.6615 810.24 99.1771 809.906 98.8438C809.578 98.5104 809.094 98.3438 808.453 98.3438C807.823 98.3438 807.341 98.513 807.008 98.8516C806.674 99.1849 806.508 99.6667 806.508 100.297ZM818.094 97.1641C819.339 97.1641 820.279 97.6719 820.914 98.6875C821.555 99.7031 821.875 101.206 821.875 103.195C821.875 105.185 821.555 106.688 820.914 107.703C820.279 108.719 819.339 109.227 818.094 109.227C816.849 109.227 815.909 108.719 815.273 107.703C814.638 106.688 814.32 105.185 814.32 103.195C814.32 101.206 814.638 99.7031 815.273 98.6875C815.909 97.6719 816.849 97.1641 818.094 97.1641ZM818.094 107.977C818.833 107.977 819.383 107.583 819.742 106.797C820.107 106.01 820.289 104.81 820.289 103.195C820.289 102.336 820.237 101.56 820.133 100.867L816.414 106.688C816.805 107.547 817.365 107.977 818.094 107.977ZM818.094 98.4141C817.359 98.4141 816.81 98.8073 816.445 99.5938C816.086 100.38 815.906 101.581 815.906 103.195C815.906 103.93 815.956 104.617 816.055 105.258L819.695 99.4531C819.299 98.7604 818.766 98.4141 818.094 98.4141ZM827.734 97.1641C828.979 97.1641 829.919 97.6719 830.555 98.6875C831.195 99.7031 831.516 101.206 831.516 103.195C831.516 105.185 831.195 106.688 830.555 107.703C829.919 108.719 828.979 109.227 827.734 109.227C826.49 109.227 825.549 108.719 824.914 107.703C824.279 106.688 823.961 105.185 823.961 103.195C823.961 101.206 824.279 99.7031 824.914 98.6875C825.549 97.6719 826.49 97.1641 827.734 97.1641ZM827.734 107.977C828.474 107.977 829.023 107.583 829.383 106.797C829.747 106.01 829.93 104.81 829.93 103.195C829.93 102.336 829.878 101.56 829.773 100.867L826.055 106.688C826.445 107.547 827.005 107.977 827.734 107.977ZM827.734 98.4141C827 98.4141 826.451 98.8073 826.086 99.5938C825.727 100.38 825.547 101.581 825.547 103.195C825.547 103.93 825.596 104.617 825.695 105.258L829.336 99.4531C828.94 98.7604 828.406 98.4141 827.734 98.4141Z" fill="white"/>
<path d="M331.914 201.672H337.273V203H330.188V201.672C331.161 200.646 332.013 199.74 332.742 198.953C333.471 198.167 333.974 197.612 334.25 197.289C334.771 196.654 335.122 196.141 335.305 195.75C335.487 195.354 335.578 194.951 335.578 194.539C335.578 193.888 335.385 193.378 335 193.008C334.62 192.638 334.096 192.453 333.43 192.453C332.956 192.453 332.458 192.539 331.938 192.711C331.417 192.883 330.865 193.143 330.281 193.492V191.898C330.818 191.643 331.344 191.451 331.859 191.32C332.38 191.19 332.893 191.125 333.398 191.125C334.539 191.125 335.456 191.43 336.148 192.039C336.846 192.643 337.195 193.438 337.195 194.422C337.195 194.922 337.078 195.422 336.844 195.922C336.615 196.422 336.24 196.974 335.719 197.578C335.427 197.917 335.003 198.385 334.445 198.984C333.893 199.583 333.049 200.479 331.914 201.672ZM343.453 197.461C342.75 197.461 342.206 197.659 341.82 198.055C341.44 198.445 341.25 199 341.25 199.719C341.25 200.438 341.443 200.997 341.828 201.398C342.219 201.794 342.76 201.992 343.453 201.992C344.161 201.992 344.706 201.797 345.086 201.406C345.471 201.01 345.664 200.448 345.664 199.719C345.664 199.005 345.469 198.451 345.078 198.055C344.693 197.659 344.151 197.461 343.453 197.461ZM342.078 196.805C341.406 196.633 340.88 196.312 340.5 195.844C340.125 195.375 339.938 194.81 339.938 194.148C339.938 193.221 340.253 192.487 340.883 191.945C341.513 191.398 342.37 191.125 343.453 191.125C344.542 191.125 345.401 191.398 346.031 191.945C346.661 192.487 346.977 193.221 346.977 194.148C346.977 194.81 346.786 195.375 346.406 195.844C346.031 196.312 345.508 196.633 344.836 196.805C345.617 196.977 346.214 197.323 346.625 197.844C347.042 198.365 347.25 199.039 347.25 199.867C347.25 200.919 346.914 201.742 346.242 202.336C345.57 202.93 344.641 203.227 343.453 203.227C342.266 203.227 341.336 202.932 340.664 202.344C339.997 201.75 339.664 200.93 339.664 199.883C339.664 199.049 339.87 198.372 340.281 197.852C340.698 197.326 341.297 196.977 342.078 196.805ZM341.508 194.297C341.508 194.922 341.674 195.398 342.008 195.727C342.341 196.055 342.823 196.219 343.453 196.219C344.089 196.219 344.573 196.055 344.906 195.727C345.24 195.398 345.406 194.922 345.406 194.297C345.406 193.661 345.24 193.177 344.906 192.844C344.578 192.51 344.094 192.344 343.453 192.344C342.823 192.344 342.341 192.513 342.008 192.852C341.674 193.185 341.508 193.667 341.508 194.297ZM353.094 191.164C354.339 191.164 355.279 191.672 355.914 192.688C356.555 193.703 356.875 195.206 356.875 197.195C356.875 199.185 356.555 200.688 355.914 201.703C355.279 202.719 354.339 203.227 353.094 203.227C351.849 203.227 350.909 202.719 350.273 201.703C349.638 200.688 349.32 199.185 349.32 197.195C349.32 195.206 349.638 193.703 350.273 192.688C350.909 191.672 351.849 191.164 353.094 191.164ZM353.094 201.977C353.833 201.977 354.383 201.583 354.742 200.797C355.107 200.01 355.289 198.81 355.289 197.195C355.289 196.336 355.237 195.56 355.133 194.867L351.414 200.688C351.805 201.547 352.365 201.977 353.094 201.977ZM353.094 192.414C352.359 192.414 351.81 192.807 351.445 193.594C351.086 194.38 350.906 195.581 350.906 197.195C350.906 197.93 350.956 198.617 351.055 199.258L354.695 193.453C354.299 192.76 353.766 192.414 353.094 192.414ZM363.984 196.758C364.75 196.961 365.336 197.323 365.742 197.844C366.148 198.359 366.352 199.005 366.352 199.781C366.352 200.854 365.99 201.698 365.266 202.312C364.547 202.922 363.549 203.227 362.273 203.227C361.737 203.227 361.19 203.177 360.633 203.078C360.076 202.979 359.529 202.836 358.992 202.648V201.078C359.523 201.354 360.047 201.56 360.562 201.695C361.078 201.831 361.591 201.898 362.102 201.898C362.966 201.898 363.63 201.703 364.094 201.312C364.557 200.922 364.789 200.359 364.789 199.625C364.789 198.948 364.557 198.411 364.094 198.016C363.63 197.615 363.003 197.414 362.211 197.414H361.008V196.117H362.211C362.935 196.117 363.5 195.958 363.906 195.641C364.312 195.323 364.516 194.88 364.516 194.312C364.516 193.714 364.326 193.255 363.945 192.938C363.57 192.615 363.034 192.453 362.336 192.453C361.872 192.453 361.393 192.505 360.898 192.609C360.404 192.714 359.885 192.87 359.344 193.078V191.625C359.974 191.458 360.534 191.333 361.023 191.25C361.518 191.167 361.956 191.125 362.336 191.125C363.471 191.125 364.378 191.411 365.055 191.984C365.737 192.552 366.078 193.307 366.078 194.25C366.078 194.891 365.898 195.424 365.539 195.852C365.185 196.279 364.667 196.581 363.984 196.758Z" fill="white"/>
<path d="M119.914 295.672H125.273V297H118.188V295.672C119.161 294.646 120.013 293.74 120.742 292.953C121.471 292.167 121.974 291.612 122.25 291.289C122.771 290.654 123.122 290.141 123.305 289.75C123.487 289.354 123.578 288.951 123.578 288.539C123.578 287.888 123.385 287.378 123 287.008C122.62 286.638 122.096 286.453 121.43 286.453C120.956 286.453 120.458 286.539 119.938 286.711C119.417 286.883 118.865 287.143 118.281 287.492V285.898C118.818 285.643 119.344 285.451 119.859 285.32C120.38 285.19 120.893 285.125 121.398 285.125C122.539 285.125 123.456 285.43 124.148 286.039C124.846 286.643 125.195 287.438 125.195 288.422C125.195 288.922 125.078 289.422 124.844 289.922C124.615 290.422 124.24 290.974 123.719 291.578C123.427 291.917 123.003 292.385 122.445 292.984C121.893 293.583 121.049 294.479 119.914 295.672ZM131.453 285.164C132.698 285.164 133.638 285.672 134.273 286.688C134.914 287.703 135.234 289.206 135.234 291.195C135.234 293.185 134.914 294.688 134.273 295.703C133.638 296.719 132.698 297.227 131.453 297.227C130.208 297.227 129.268 296.719 128.633 295.703C127.997 294.688 127.68 293.185 127.68 291.195C127.68 289.206 127.997 287.703 128.633 286.688C129.268 285.672 130.208 285.164 131.453 285.164ZM131.453 295.977C132.193 295.977 132.742 295.583 133.102 294.797C133.466 294.01 133.648 292.81 133.648 291.195C133.648 290.336 133.596 289.56 133.492 288.867L129.773 294.688C130.164 295.547 130.724 295.977 131.453 295.977ZM131.453 286.414C130.719 286.414 130.169 286.807 129.805 287.594C129.445 288.38 129.266 289.581 129.266 291.195C129.266 291.93 129.315 292.617 129.414 293.258L133.055 287.453C132.659 286.76 132.125 286.414 131.453 286.414ZM137.898 285.336H143.805V286.664H139.336V289.531C139.56 289.448 139.784 289.388 140.008 289.352C140.237 289.31 140.466 289.289 140.695 289.289C141.904 289.289 142.862 289.646 143.57 290.359C144.279 291.073 144.633 292.039 144.633 293.258C144.633 294.487 144.26 295.456 143.516 296.164C142.776 296.872 141.763 297.227 140.477 297.227C139.857 297.227 139.289 297.185 138.773 297.102C138.263 297.018 137.805 296.893 137.398 296.727V295.125C137.878 295.385 138.359 295.581 138.844 295.711C139.328 295.836 139.823 295.898 140.328 295.898C141.198 295.898 141.867 295.669 142.336 295.211C142.81 294.753 143.047 294.102 143.047 293.258C143.047 292.424 142.802 291.776 142.312 291.312C141.828 290.849 141.151 290.617 140.281 290.617C139.859 290.617 139.448 290.667 139.047 290.766C138.646 290.859 138.263 291.003 137.898 291.195V285.336ZM150.734 285.164C151.979 285.164 152.919 285.672 153.555 286.688C154.195 287.703 154.516 289.206 154.516 291.195C154.516 293.185 154.195 294.688 153.555 295.703C152.919 296.719 151.979 297.227 150.734 297.227C149.49 297.227 148.549 296.719 147.914 295.703C147.279 294.688 146.961 293.185 146.961 291.195C146.961 289.206 147.279 287.703 147.914 286.688C148.549 285.672 149.49 285.164 150.734 285.164ZM150.734 295.977C151.474 295.977 152.023 295.583 152.383 294.797C152.747 294.01 152.93 292.81 152.93 291.195C152.93 290.336 152.878 289.56 152.773 288.867L149.055 294.688C149.445 295.547 150.005 295.977 150.734 295.977ZM150.734 286.414C150 286.414 149.451 286.807 149.086 287.594C148.727 288.38 148.547 289.581 148.547 291.195C148.547 291.93 148.596 292.617 148.695 293.258L152.336 287.453C151.94 286.76 151.406 286.414 150.734 286.414Z" fill="white"/>
<path d="M74.7422 380.594V382.047C74.4141 381.854 74.0651 381.708 73.6953 381.609C73.3255 381.505 72.9401 381.453 72.5391 381.453C71.5391 381.453 70.7812 381.831 70.2656 382.586C69.75 383.336 69.4922 384.443 69.4922 385.906C69.7422 385.385 70.0885 384.987 70.5312 384.711C70.974 384.43 71.4818 384.289 72.0547 384.289C73.1797 384.289 74.0495 384.635 74.6641 385.328C75.2839 386.016 75.5938 386.992 75.5938 388.258C75.5938 389.518 75.276 390.495 74.6406 391.188C74.0052 391.88 73.112 392.227 71.9609 392.227C70.6068 392.227 69.6146 391.742 68.9844 390.773C68.3542 389.799 68.0391 388.268 68.0391 386.18C68.0391 384.211 68.4167 382.711 69.1719 381.68C69.9323 380.643 71.0312 380.125 72.4688 380.125C72.8542 380.125 73.2396 380.167 73.625 380.25C74.0104 380.328 74.3828 380.443 74.7422 380.594ZM71.9297 385.523C71.2578 385.523 70.7292 385.766 70.3438 386.25C69.9583 386.734 69.7656 387.404 69.7656 388.258C69.7656 389.112 69.9583 389.781 70.3438 390.266C70.7292 390.75 71.2578 390.992 71.9297 390.992C72.6276 390.992 73.1536 390.763 73.5078 390.305C73.862 389.841 74.0391 389.159 74.0391 388.258C74.0391 387.352 73.862 386.669 73.5078 386.211C73.1536 385.753 72.6276 385.523 71.9297 385.523ZM78.2578 380.336H84.1641V381.664H79.6953V384.531C79.9193 384.448 80.1432 384.388 80.3672 384.352C80.5964 384.31 80.8255 384.289 81.0547 384.289C82.263 384.289 83.2214 384.646 83.9297 385.359C84.638 386.073 84.9922 387.039 84.9922 388.258C84.9922 389.487 84.6198 390.456 83.875 391.164C83.1354 391.872 82.1224 392.227 80.8359 392.227C80.2161 392.227 79.6484 392.185 79.1328 392.102C78.6224 392.018 78.1641 391.893 77.7578 391.727V390.125C78.237 390.385 78.7188 390.581 79.2031 390.711C79.6875 390.836 80.1823 390.898 80.6875 390.898C81.5573 390.898 82.2266 390.669 82.6953 390.211C83.1693 389.753 83.4062 389.102 83.4062 388.258C83.4062 387.424 83.1615 386.776 82.6719 386.312C82.1875 385.849 81.5104 385.617 80.6406 385.617C80.2188 385.617 79.8073 385.667 79.4062 385.766C79.0052 385.859 78.6224 386.003 78.2578 386.195V380.336ZM92.3438 385.758C93.1094 385.961 93.6953 386.323 94.1016 386.844C94.5078 387.359 94.7109 388.005 94.7109 388.781C94.7109 389.854 94.349 390.698 93.625 391.312C92.9062 391.922 91.9089 392.227 90.6328 392.227C90.0964 392.227 89.5495 392.177 88.9922 392.078C88.4349 391.979 87.888 391.836 87.3516 391.648V390.078C87.8828 390.354 88.4062 390.56 88.9219 390.695C89.4375 390.831 89.9505 390.898 90.4609 390.898C91.3255 390.898 91.9896 390.703 92.4531 390.312C92.9167 389.922 93.1484 389.359 93.1484 388.625C93.1484 387.948 92.9167 387.411 92.4531 387.016C91.9896 386.615 91.362 386.414 90.5703 386.414H89.3672V385.117H90.5703C91.2943 385.117 91.8594 384.958 92.2656 384.641C92.6719 384.323 92.875 383.88 92.875 383.312C92.875 382.714 92.6849 382.255 92.3047 381.938C91.9297 381.615 91.3932 381.453 90.6953 381.453C90.2318 381.453 89.7526 381.505 89.2578 381.609C88.763 381.714 88.2448 381.87 87.7031 382.078V380.625C88.3333 380.458 88.8932 380.333 89.3828 380.25C89.8776 380.167 90.3151 380.125 90.6953 380.125C91.8307 380.125 92.737 380.411 93.4141 380.984C94.0964 381.552 94.4375 382.307 94.4375 383.25C94.4375 383.891 94.2578 384.424 93.8984 384.852C93.5443 385.279 93.026 385.581 92.3438 385.758Z" fill="white"/>
</svg>
