<svg width="286" height="84" viewBox="0 0 286 84" fill="none" xmlns="http://www.w3.org/2000/svg">
<path d="M9.11896 53.6689C7.63306 53.6689 6.10258 53.4311 4.52753 52.9556C2.95247 52.4801 1.71918 51.8709 0.827637 51.128L2.34326 42.5692L2.69987 42.6138C2.581 45.3775 2.77417 47.5024 3.27937 48.9883C3.78458 50.4445 4.52753 51.44 5.50822 51.9749C6.51864 52.4801 7.79651 52.7327 9.34185 52.7327C11.8084 52.7327 13.755 52.1087 15.1814 50.8605C16.6079 49.6123 17.3211 47.8293 17.3211 45.5113C17.3211 44.2334 17.0537 43.1487 16.5187 42.2571C15.9838 41.3359 15.122 40.4889 13.9333 39.7163C12.7743 38.9436 11.1992 38.1561 9.20812 37.3537C7.24673 36.5513 5.71625 35.7489 4.61668 34.9465C3.51712 34.1144 2.72959 33.1932 2.2541 32.1827C1.77861 31.1723 1.54087 29.939 1.54087 28.4828C1.54087 26.9969 1.91234 25.7042 2.65529 24.6046C3.39824 23.4754 4.43837 22.6135 5.77569 22.0192C7.14271 21.3951 8.71777 21.0831 10.5008 21.0831C12.4325 21.0831 14.2007 21.3357 15.8055 21.8409C17.4103 22.3461 18.6733 22.9702 19.5946 23.7131L16.9645 32.049L16.6079 32.0044C17.1131 29.2704 17.1725 27.1901 16.7862 25.7636C16.4296 24.3075 15.7312 23.3268 14.6911 22.8216C13.6807 22.2866 12.3136 22.0192 10.59 22.0192C8.53946 22.0192 6.87525 22.5541 5.59738 23.624C4.3195 24.6938 3.68057 26.2094 3.68057 28.1708C3.68057 29.2407 3.85887 30.1916 4.21549 31.0237C4.57211 31.8261 5.21104 32.5839 6.1323 33.2972C7.05356 33.9807 8.34629 34.6642 10.0105 35.3477C12.2394 36.2095 13.9927 37.0416 15.2706 37.844C16.5485 38.6167 17.5589 39.5677 18.3018 40.6969C19.0448 41.7965 19.4163 43.1933 19.4163 44.8872C19.4163 46.5514 19.0151 48.0522 18.2127 49.3895C17.4103 50.6971 16.2364 51.7372 14.6911 52.5099C13.1458 53.2825 11.2884 53.6689 9.11896 53.6689Z" fill="white"/>
<path d="M27.211 56.4772C27.211 57.5471 27.2555 58.3197 27.3447 58.7952C27.4338 59.3004 27.5973 59.6273 27.835 59.7759C28.0728 59.9542 28.4591 60.0731 28.994 60.1325L33.7192 60.5783V60.9795H21.4159V60.5783L24.0014 60.1771C24.358 60.0879 24.6106 59.9691 24.7592 59.8205C24.9375 59.6719 25.0564 59.3599 25.1158 58.8844C25.1753 58.4089 25.205 57.6065 25.205 56.4772V37.6211C25.205 36.581 25.1753 35.8678 25.1158 35.4814C25.0861 35.0951 24.9821 34.8276 24.8038 34.6791C24.6255 34.5305 24.3135 34.4413 23.8677 34.4116H21.8617V34.0995L26.9881 32.2719L27.211 32.361V35.3923H27.3893C28.4591 34.3224 29.6033 33.4755 30.8217 32.8514C32.0699 32.2273 33.2586 31.9153 34.3879 31.9153C36.587 31.9153 38.3701 32.8068 39.7371 34.5899C41.1041 36.3433 41.7876 38.7801 41.7876 41.9005C41.7876 44.1888 41.3865 46.2245 40.5841 48.0076C39.8114 49.7907 38.7415 51.1874 37.3745 52.1978C36.0075 53.1785 34.477 53.6689 32.7831 53.6689C31.6835 53.6689 30.6434 53.4757 29.6627 53.0894C28.682 52.703 27.8648 52.2275 27.211 51.6629V56.4772ZM33.0951 52.6882C34.2541 52.6882 35.3388 52.3315 36.3492 51.6183C37.3597 50.8754 38.162 49.7758 38.7564 48.3196C39.3508 46.8337 39.6479 45.0506 39.6479 42.9704C39.6479 39.8203 39.0684 37.4577 37.9094 35.8826C36.7504 34.2779 35.22 33.4755 33.318 33.4755C32.2779 33.4755 31.2377 33.7429 30.1976 34.2779C29.1575 34.7831 28.1619 35.4369 27.211 36.2392V48.1413C27.211 48.9437 27.4784 49.7015 28.0133 50.4147C28.5483 51.0983 29.2615 51.648 30.153 52.0641C31.0743 52.4801 32.055 52.6882 33.0951 52.6882Z" fill="white"/>
<path d="M50.0884 53.6689C48.6619 53.6689 47.5029 53.2082 46.6114 52.287C45.7495 51.3657 45.3186 50.2067 45.3186 48.81C45.3186 47.6212 45.6307 46.6257 46.2547 45.8233C46.9085 44.9912 47.8892 44.2928 49.1968 43.7282C50.5341 43.1635 52.3024 42.6583 54.5015 42.2126L56.9532 41.6776V40.2512C56.9829 39.954 56.9978 39.6568 56.9978 39.3596C56.9978 39.0327 56.9978 38.7207 56.9978 38.4235C56.9978 36.6702 56.6263 35.3477 55.8834 34.4562C55.1701 33.5646 54.1152 33.1189 52.7184 33.1189C51.0245 33.1189 49.7615 33.6835 48.9294 34.8128C48.127 35.9421 47.8149 37.7103 47.9932 40.1174H45.4969C45.6752 38.3641 46.121 36.8782 46.8342 35.6597C47.5772 34.4413 48.5133 33.52 49.6426 32.896C50.8016 32.2719 52.1092 31.9599 53.5654 31.9599C54.7244 31.9599 55.7051 32.2125 56.5075 32.7177C57.3396 33.1932 57.9636 33.8767 58.3797 34.7682C58.7957 35.63 59.0038 36.6702 59.0038 37.8886C59.0038 38.0669 59.0038 38.2601 59.0038 38.4681C59.0038 38.6761 59.0038 38.9139 59.0038 39.1813C58.9443 41.7668 58.9146 44.7535 58.9146 48.1413C58.9146 49.5381 59.0781 50.5187 59.405 51.0834C59.7616 51.6183 60.2074 51.8858 60.7423 51.8858C61.3664 51.8858 61.8418 51.7075 62.1687 51.3509C62.5254 50.9645 62.778 50.385 62.9265 49.6124C63.1049 48.81 63.2534 47.7104 63.3723 46.3137H63.6844C63.7438 48.7802 63.4912 50.6079 62.9265 51.7966C62.3916 52.9556 61.4555 53.5351 60.1182 53.5351C59.1672 53.5351 58.4094 53.1637 57.8448 52.4207C57.3098 51.648 57.0424 50.4445 57.0424 48.81H56.8641C56.8046 48.8991 56.7452 49.0031 56.6858 49.122C56.6263 49.2112 56.5669 49.3003 56.5075 49.3895C55.6754 50.6376 54.7392 51.6629 53.6991 52.4653C52.659 53.2677 51.4554 53.6689 50.0884 53.6689ZM50.8016 51.8858C52.02 51.8858 53.075 51.5737 53.9666 50.9497C54.8878 50.3256 55.7051 49.4935 56.4183 48.4533C56.5372 48.3048 56.6412 48.171 56.7303 48.0522C56.8195 47.9333 56.8938 47.7996 56.9532 47.651C56.9532 46.5811 56.9532 45.6747 56.9532 44.9318C56.9532 44.1591 56.9681 43.2973 56.9978 42.3463L54.8135 42.9704C53.0007 43.4756 51.5743 43.9511 50.5341 44.3968C49.494 44.8426 48.6916 45.3775 48.127 46.0016C47.5921 46.596 47.3246 47.3538 47.3246 48.275C47.3246 49.3746 47.6366 50.2513 48.2607 50.9051C48.9145 51.5589 49.7615 51.8858 50.8016 51.8858Z" fill="white"/>
<path d="M74.4236 53.6689C72.7891 53.6689 71.3032 53.2677 69.9659 52.4653C68.6583 51.6332 67.6182 50.4445 66.8455 48.8991C66.0728 47.3241 65.6865 45.4518 65.6865 43.2824C65.6865 40.9347 66.1323 38.9139 67.0238 37.2199C67.9451 35.4963 69.1338 34.1887 70.59 33.2972C72.0759 32.4056 73.6806 31.9599 75.4043 31.9599C76.593 31.9599 77.6926 32.0936 78.703 32.361C79.7134 32.6285 80.6644 33.0743 81.5559 33.6984L79.5054 40.162H79.1933C79.4608 38.2601 79.4608 36.789 79.1933 35.7489C78.9556 34.6791 78.495 33.9361 77.8114 33.52C77.1576 33.104 76.2512 32.896 75.0922 32.896C73.7252 32.896 72.4919 33.2823 71.3923 34.055C70.2928 34.7979 69.4161 35.8975 68.7623 37.3537C68.1382 38.8099 67.8262 40.5484 67.8262 42.5692C67.8262 45.3924 68.4651 47.6807 69.743 49.434C71.0209 51.1577 72.7742 52.0195 75.0031 52.0195C77.0536 52.0195 78.6881 51.336 79.9066 49.969C81.1547 48.5722 81.8977 46.6257 82.1354 44.1294H82.4474C82.3583 47.1012 81.6153 49.434 80.2186 51.128C78.8219 52.8219 76.8902 53.6689 74.4236 53.6689Z" fill="white"/>
<path d="M94.2732 53.6689C92.6982 53.6689 91.2569 53.2825 89.9493 52.5099C88.6417 51.7372 87.5867 50.5633 86.7843 48.9883C85.9819 47.4132 85.5807 45.4964 85.5807 43.2378C85.5807 40.8901 85.9968 38.8693 86.8289 37.1754C87.6907 35.4517 88.8051 34.159 90.1722 33.2972C91.5392 32.4056 92.9805 31.9599 94.4961 31.9599C95.9523 31.9599 97.245 32.2868 98.3743 32.9405C99.5036 33.5943 100.38 34.5899 101.004 35.9272C101.658 37.2348 101.985 38.8544 101.985 40.7861L101.628 41.1427L87.453 40.9198L87.4084 40.2066L99.7116 40.1174C99.8305 39.3745 99.7711 38.4384 99.5333 37.3091C99.2956 36.1501 98.7607 35.1248 97.9286 34.2333C97.0965 33.3417 95.9077 32.896 94.3624 32.896C93.0845 32.896 91.9404 33.2823 90.93 34.055C89.9196 34.7979 89.132 35.8975 88.5674 37.3537C88.0027 38.8099 87.7204 40.5186 87.7204 42.48C87.7204 45.3924 88.3742 47.7253 89.6818 49.4786C90.9894 51.2023 92.7279 52.0641 94.8973 52.0641C96.9479 52.0641 98.5526 51.3657 99.7116 49.969C100.9 48.5722 101.614 46.6257 101.851 44.1294H102.253C102.163 47.1012 101.42 49.434 100.024 51.128C98.6567 52.8219 96.7398 53.6689 94.2732 53.6689Z" fill="white"/>
<path d="M208.444 28.7949C208.444 26.8335 208.4 25.4516 208.311 24.6492C208.221 23.8171 208.058 23.2822 207.82 23.0444C207.583 22.8067 207.196 22.6581 206.661 22.5987L201.847 22.1529V21.7963H215.577V22.1529L212.01 22.5987C211.594 22.6581 211.297 22.8067 211.119 23.0444C210.941 23.2822 210.822 23.8171 210.762 24.6492C210.703 25.4516 210.673 26.8335 210.673 28.7949V45.0655C210.673 47.5321 210.45 49.6272 210.005 51.3509C209.588 53.0745 208.756 54.6347 207.508 56.0314C206.29 57.4579 204.477 58.6912 202.07 59.7313L201.847 59.1073C203.838 58.186 205.309 57.1161 206.26 55.8977C207.211 54.6793 207.805 53.342 208.043 51.8858C208.311 50.4296 208.444 48.5276 208.444 46.1799V28.7949Z" fill="white"/>
<path d="M224.985 53.6689C223.677 53.6689 222.652 53.4311 221.909 52.9556C221.166 52.4504 220.646 51.7669 220.349 50.9051C220.052 50.0433 219.918 48.9734 219.948 47.6955L219.992 37.5766C220.022 36.5364 219.992 35.8232 219.903 35.4369C219.844 35.0208 219.725 34.7533 219.546 34.6345C219.368 34.5156 219.071 34.4413 218.655 34.4116H216.649V34.055L221.82 32.2719L222.043 32.3165C222.043 32.8217 222.043 33.3417 222.043 33.8767C222.043 34.4116 222.043 35.0951 222.043 35.9272V37.5766L221.998 47.0269C221.998 48.7208 222.266 49.9541 222.801 50.7268C223.365 51.4994 224.405 51.8858 225.921 51.8858C227.05 51.8858 228.194 51.6183 229.353 51.0834C230.542 50.5485 231.627 49.8798 232.608 49.0774L232.652 37.5766C232.652 36.5364 232.622 35.8232 232.563 35.4369C232.504 35.0208 232.385 34.7533 232.206 34.6345C232.028 34.5156 231.716 34.4413 231.27 34.4116H229.264V34.055L234.435 32.2719L234.658 32.3165C234.658 32.8217 234.658 33.3417 234.658 33.8767C234.658 34.4116 234.658 35.0951 234.658 35.9272V37.5766L234.613 48.0967C234.613 49.0774 234.643 49.7758 234.703 50.1919C234.762 50.5782 234.881 50.8456 235.059 50.9942C235.238 51.1428 235.55 51.232 235.995 51.2617H238.09L238.135 51.6183L233.053 53.3568L232.652 53.3122V49.969H232.518C231.24 51.128 229.963 52.0344 228.685 52.6882C227.407 53.342 226.174 53.6689 224.985 53.6689Z" fill="white"/>
<path d="M246.087 48.8991C246.087 49.8798 246.117 50.593 246.176 51.0388C246.236 51.4549 246.34 51.7372 246.488 51.8858C246.637 52.0344 246.89 52.1384 247.246 52.1978L249.832 52.599V53.0002H240.292V52.599L242.833 52.1978C243.19 52.1087 243.442 52.0047 243.591 51.8858C243.769 51.7372 243.888 51.4549 243.947 51.0388C244.037 50.593 244.081 49.8798 244.081 48.8991L244.126 37.532C244.126 36.4918 244.096 35.7935 244.037 35.4369C243.977 35.0505 243.858 34.7979 243.68 34.6791C243.531 34.5305 243.234 34.4413 242.788 34.4116H240.693V34.055L245.909 32.2719L246.087 32.361V35.6597H246.31C247.588 34.5007 248.881 33.5943 250.188 32.9405C251.526 32.2868 252.863 31.9599 254.2 31.9599C255.864 31.9599 257.098 32.4502 257.9 33.4309C258.702 34.4116 259.104 35.9123 259.104 37.9332L259.059 48.8991C259.059 49.8798 259.089 50.593 259.148 51.0388C259.208 51.4549 259.312 51.7372 259.46 51.8858C259.609 52.0344 259.861 52.1384 260.218 52.1978L262.804 52.599V53.0002H253.264V52.599L255.805 52.1978C256.162 52.1087 256.414 52.0047 256.563 51.8858C256.741 51.7372 256.86 51.4549 256.919 51.0388C257.009 50.593 257.053 49.8798 257.053 48.8991L257.098 38.5127C257.098 36.8485 256.771 35.6449 256.117 34.9019C255.493 34.1293 254.483 33.7429 253.086 33.7429C251.867 33.7429 250.649 34.0104 249.43 34.5453C248.242 35.0505 247.157 35.7192 246.176 36.5513L246.087 48.8991Z" fill="white"/>
<path d="M264.71 53.0002V52.6436L267.295 52.2424C267.652 52.183 267.904 52.0789 268.053 51.9304C268.201 51.752 268.305 51.3806 268.365 50.8159C268.424 50.2513 268.469 49.3152 268.499 48.0076L268.543 25.7636C268.543 24.7235 268.513 24.0103 268.454 23.624C268.395 23.2079 268.276 22.9404 268.097 22.8216C267.919 22.7027 267.607 22.6284 267.161 22.5987H265.155V22.2421L270.326 20.459L270.549 20.5036C270.549 21.0088 270.549 21.5288 270.549 22.0638C270.549 22.5987 270.549 23.2822 270.549 24.1143V25.7636L270.505 48.0076C270.475 49.3152 270.49 50.2513 270.549 50.8159C270.638 51.3806 270.742 51.752 270.861 51.9304C271.01 52.0789 271.233 52.183 271.53 52.2424L273.848 52.6882L273.803 53.0002H264.71ZM283.477 53.1339C282.615 53.1339 281.887 52.9853 281.292 52.6882C280.728 52.3613 280.163 51.8858 279.598 51.2617L271.886 42.3017V41.6776L279.331 35.1248C279.687 34.7682 279.94 34.471 280.089 34.2333C280.237 33.9955 280.237 33.7875 280.089 33.6092C279.97 33.4309 279.673 33.312 279.197 33.2526L276.701 32.9405V32.5839H284.68V32.896C283.848 33.1634 283.179 33.4458 282.674 33.7429C282.199 34.0104 281.604 34.4413 280.891 35.0357L273.135 41.321L273.224 40.8753C274.472 42.3017 275.705 43.7133 276.924 45.1101C278.172 46.4771 279.435 47.8738 280.713 49.3003C281.575 50.3404 282.332 51.128 282.986 51.6629C283.64 52.1681 284.457 52.4801 285.438 52.599V52.8219C284.725 53.0299 284.071 53.1339 283.477 53.1339Z" fill="white"/>
<path d="M195 42L160.29 41.2917V41.2917C158.23 41.2496 157.229 38.8326 158.656 37.3462V37.3462L182.698 12.3016L157.654 36.3444V36.3444C156.167 37.7712 153.75 36.7701 153.708 34.7101V34.7101L153 0L152.292 34.7101V34.7101C152.25 36.7701 149.833 37.7712 148.346 36.3444V36.3444L123.301 12.3016L147.344 37.3462V37.3462C148.771 38.8326 147.77 41.2496 145.71 41.2917V41.2917L111 42L145.71 42.7083V42.7083C147.77 42.7504 148.771 45.1674 147.344 46.6538V46.6538L123.301 71.6984L148.346 47.6556V47.6556C149.833 46.2288 152.25 47.2298 152.292 49.2899V49.2899L153 84L153.708 49.2899V49.2899C153.75 47.2298 156.167 46.2288 157.654 47.6556V47.6556L182.698 71.6984L158.656 46.6538V46.6538C157.229 45.1674 158.23 42.7504 160.29 42.7083V42.7083L195 42Z" fill="white"/>
</svg>
