<svg width="951" height="403" viewBox="0 0 951 403" fill="none" xmlns="http://www.w3.org/2000/svg">
<path d="M832.412 131.214C830.43 132.441 828.427 133.671 826.402 134.905H838.897C877.731 110.673 907.849 88.0388 927.075 68.4058C936.731 58.5448 943.558 49.5237 947.387 41.5152C951.216 33.5076 951.953 26.7298 949.828 21.1451C946.52 12.4466 936.06 6.22552 918.235 2.98547C900.561 -0.227167 876.345 -0.370793 846.749 2.41022C787.893 7.94083 708.224 24.9905 617.507 51.883V58.724C681.246 39.7657 739.539 25.6673 788.97 17.0145C834.946 8.96664 872.812 5.71092 900.104 7.45918C913.779 8.33513 924.29 10.4402 931.697 13.502C939.112 16.5674 942.437 20.1522 943.702 23.4776C944.967 26.803 944.866 31.6917 941.363 38.9135C937.865 46.1266 931.412 54.6899 921.78 64.4389C902.554 83.8965 872.104 106.648 832.412 131.214Z" fill="white"/>
<path d="M487.659 144.534C500.079 150.505 512.262 156.535 524.169 162.596L510.546 163.066C502.099 158.838 493.519 154.627 484.819 150.445C465.623 141.216 446.686 132.526 428.173 124.416L427.431 124.091L426.676 124.385C386.381 140.038 347.764 156.166 311.388 172.418L303.811 168.627C338.765 152.914 375.809 137.309 414.436 122.127L418.89 120.376L414.489 118.495C355.942 93.4701 302.126 74.4911 258.447 62.9531C228.03 54.918 202.96 50.6089 184.804 50.2169C175.697 50.0202 168.839 50.8255 164.086 52.3276C159.313 53.8358 157.69 55.6872 157.114 56.8865C156.538 58.0858 156.106 60.5101 157.911 65.1804C159.708 69.832 163.364 75.6921 169.207 82.683C180.856 96.6206 199.882 113.512 225.156 132.252C238.137 141.877 254.454 153.578 270.331 163.883H259.102C221.923 139.392 192.544 116.509 173.654 97.2777C164.145 87.5976 157.38 78.9289 153.59 71.5204C149.777 64.0667 149.168 58.2864 151.205 54.0457C152.664 51.0098 155.57 48.5459 160.146 46.7638C164.735 44.9769 170.854 43.9392 178.432 43.689C193.582 43.1887 214.126 45.8459 238.893 51.4073C288.394 62.523 354.336 85.1406 426.841 116.679L427.579 117.001L428.331 116.71C432.626 115.049 436.941 113.394 441.273 111.745C483.325 95.7358 524.501 81.2642 564.083 68.4558V75.3495C525.244 87.9558 484.858 102.169 443.605 117.874L436.108 120.736L440.446 122.668C455.951 129.574 471.72 136.871 487.659 144.534Z" fill="white"/>
<path d="M454.419 270.909C467.083 276.785 479.607 282.418 491.945 287.793L496.396 289.732L491.848 291.432C366.602 338.226 250.204 370.993 162.029 386.428C116.053 394.475 78.1869 397.731 50.8946 395.983C37.2201 395.107 26.7088 393.002 19.3023 389.94C11.8868 386.875 8.56267 383.29 7.29769 379.965C6.0327 376.639 6.1336 371.75 9.63582 364.529C13.1338 357.316 19.5869 348.752 29.2197 339.003C48.4454 319.546 78.8952 296.794 118.588 272.228C128.314 266.208 138.572 260.093 149.326 253.906L146.544 247.942C97.2266 276.286 58.278 303.105 32.9265 326.349C20.0852 338.123 10.8228 348.899 5.44709 358.414C0.0589068 367.951 -1.25911 375.909 1.17078 382.297C3.30362 387.904 8.39033 392.491 16.6292 395.931C24.8686 399.371 36.0414 401.563 49.9046 402.49C77.6182 404.344 115.615 401.117 161.276 393.215C252.564 377.418 374.08 343.013 504.358 293.734L505.095 293.456L505.819 293.764C575.357 323.312 638.156 344.317 685.202 354.427C708.741 359.485 728.228 361.792 742.602 361.123C749.79 360.789 755.592 359.715 759.949 357.94C764.292 356.171 767.069 353.766 768.484 350.82C770.145 347.361 770.053 342.887 767.874 337.273C765.696 331.661 761.517 325.145 755.408 317.852C743.28 303.377 723.849 286.194 698.522 267.408H687.417C689.838 269.156 692.21 270.892 694.533 272.614C719.807 291.354 738.833 308.245 750.482 322.183C756.325 329.174 759.981 335.034 761.778 339.685C763.582 344.356 763.151 346.78 762.575 347.979C761.999 349.179 760.376 351.03 755.604 352.538C750.85 354.04 743.992 354.846 734.885 354.649C716.729 354.257 691.659 349.948 661.242 341.913C620.883 331.252 571.872 314.238 518.472 291.975L513.951 290.09L518.523 288.331C523.818 286.293 529.086 284.248 534.325 282.194L528.53 277.419C521.535 280.15 514.489 282.867 507.395 285.568L505.239 286.388L504.51 286.076C492.732 281.035 480.762 275.75 468.644 270.231L454.419 270.909Z" fill="white"/>
<path d="M825.832 233.595L838.537 221.568L863.812 252.866H884.578L851.243 210.497L881.709 179.882H861.216L825.832 212.684V151.454H808.754V252.866H825.832V233.595Z" fill="white"/>
<path d="M194.497 253.823C188.576 253.823 182.793 253.048 177.146 251.499C171.499 249.95 166.991 247.991 163.621 245.622L170.178 232.638C173.457 234.825 177.374 236.602 181.928 237.968C186.573 239.244 191.127 239.882 195.59 239.882C205.79 239.882 210.891 237.194 210.891 231.818C210.891 229.267 209.57 227.49 206.929 226.488C204.379 225.486 200.235 224.529 194.497 223.618C188.485 222.707 183.567 221.659 179.742 220.474C176.008 219.29 172.729 217.24 169.905 214.324C167.173 211.317 165.807 207.171 165.807 201.887C165.807 194.962 168.676 189.449 174.414 185.349C180.243 181.158 188.076 179.062 197.912 179.062C202.921 179.062 207.931 179.655 212.94 180.839C217.95 181.932 222.048 183.436 225.236 185.349L218.678 198.333C212.485 194.689 205.517 192.866 197.775 192.866C192.766 192.866 188.941 193.641 186.299 195.19C183.749 196.648 182.474 198.607 182.474 201.067C182.474 203.8 183.84 205.759 186.573 206.944C189.396 208.037 193.722 209.085 199.552 210.087C205.381 210.998 210.162 212.046 213.897 213.231C217.631 214.415 220.819 216.42 223.46 219.244C226.192 222.069 227.558 226.078 227.558 231.271C227.558 238.105 224.598 243.572 218.678 247.672C212.758 251.772 204.698 253.823 194.497 253.823Z" fill="white"/>
<path fill-rule="evenodd" clip-rule="evenodd" d="M282.705 179.062C289.809 179.062 296.139 180.611 301.695 183.709C307.342 186.807 311.759 191.181 314.947 196.83C318.134 202.479 319.728 208.994 319.728 216.374C319.728 223.754 318.134 230.315 314.947 236.055C311.759 241.704 307.342 246.078 301.695 249.176C296.139 252.274 289.809 253.823 282.705 253.823C272.868 253.823 265.081 250.542 259.343 243.982V279.38H242.265V179.882H258.523V189.449C261.346 185.987 264.807 183.39 268.906 181.659C273.096 179.928 277.695 179.062 282.705 179.062ZM280.792 239.198C287.076 239.198 292.222 237.103 296.23 232.911C300.328 228.72 302.378 223.208 302.378 216.374C302.378 209.54 300.328 204.028 296.23 199.837C292.222 195.645 287.076 193.55 280.792 193.55C276.693 193.55 273.005 194.506 269.726 196.42C266.447 198.242 263.851 200.884 261.938 204.347C260.026 207.809 259.069 211.818 259.069 216.374C259.069 220.93 260.026 224.939 261.938 228.401C263.851 231.864 266.447 234.552 269.726 236.465C273.005 238.287 276.693 239.198 280.792 239.198Z" fill="white"/>
<path fill-rule="evenodd" clip-rule="evenodd" d="M387.452 186.853C381.805 181.659 373.608 179.062 362.861 179.062C356.849 179.062 351.157 179.837 345.783 181.386C340.409 182.935 335.81 185.167 331.985 188.083L338.679 200.52C341.411 198.242 344.736 196.465 348.652 195.19C352.66 193.914 356.713 193.276 360.811 193.276C366.822 193.276 371.331 194.643 374.336 197.376C377.433 200.11 378.982 204.028 378.982 209.13V210.224H360.128C349.654 210.224 341.958 212.228 337.039 216.237C332.212 220.155 329.799 225.394 329.799 231.955C329.799 236.146 330.892 239.927 333.078 243.299C335.355 246.579 338.542 249.176 342.641 251.089C346.739 252.911 351.521 253.823 356.986 253.823C362.451 253.823 367.096 253.002 370.921 251.362C374.837 249.631 377.843 247.171 379.938 243.982V252.866H396.059V210.087C396.059 199.7 393.19 191.955 387.452 186.853ZM371.877 238.515C368.598 240.429 364.819 241.385 360.538 241.385C356.166 241.385 352.751 240.474 350.292 238.652C347.832 236.829 346.603 234.369 346.603 231.271C346.603 224.802 351.521 221.568 361.358 221.568H378.982V230.041C377.615 233.686 375.247 236.511 371.877 238.515Z" fill="white"/>
<path d="M452.114 253.823C444.555 253.823 437.769 252.228 431.758 249.039C425.747 245.85 421.056 241.431 417.686 235.782C414.316 230.041 412.631 223.572 412.631 216.374C412.631 209.176 414.316 202.752 417.686 197.103C421.056 191.454 425.701 187.035 431.622 183.846C437.633 180.657 444.464 179.062 452.114 179.062C459.31 179.062 465.594 180.52 470.968 183.436C476.433 186.351 480.531 190.543 483.264 196.01L470.148 203.663C468.053 200.292 465.412 197.786 462.224 196.146C459.128 194.415 455.712 193.55 451.978 193.55C445.602 193.55 440.32 195.645 436.13 199.837C431.94 203.937 429.845 209.449 429.845 216.374C429.845 223.299 431.895 228.857 435.993 233.048C440.183 237.148 445.511 239.198 451.978 239.198C455.712 239.198 459.128 238.378 462.224 236.738C465.412 235.007 468.053 232.456 470.148 229.085L483.264 236.738C480.44 242.205 476.296 246.442 470.831 249.449C465.458 252.365 459.219 253.823 452.114 253.823Z" fill="white"/>
<path fill-rule="evenodd" clip-rule="evenodd" d="M565.268 221.841C565.45 219.654 565.541 217.969 565.541 216.784C565.541 209.313 563.947 202.752 560.76 197.103C557.663 191.363 553.291 186.944 547.644 183.846C542.088 180.657 535.758 179.062 528.654 179.062C521.459 179.062 514.992 180.657 509.254 183.846C503.516 187.035 499.008 191.5 495.729 197.24C492.541 202.889 490.947 209.267 490.947 216.374C490.947 223.572 492.587 230.041 495.866 235.782C499.236 241.431 503.972 245.85 510.074 249.039C516.176 252.228 523.235 253.823 531.25 253.823C537.534 253.823 543.181 252.82 548.191 250.816C553.2 248.811 557.344 245.85 560.623 241.932L551.47 231.408C546.278 236.693 539.675 239.335 531.66 239.335C525.375 239.335 520.093 237.786 515.812 234.688C511.622 231.499 509.027 227.217 508.025 221.841H565.268ZM514.719 197.65C518.544 194.37 523.189 192.73 528.654 192.73C534.21 192.73 538.855 194.37 542.589 197.65C546.324 200.93 548.555 205.212 549.284 210.497H507.888C508.708 205.121 510.985 200.839 514.719 197.65Z" fill="white"/>
<path d="M574.431 280.337C567.236 280.337 561.771 278.925 558.037 276.1L562.955 263.39C565.505 265.303 568.83 266.26 572.928 266.26C576.116 266.26 578.53 265.257 580.169 263.253C581.9 261.34 582.765 258.469 582.765 254.643V179.882H599.842V254.232C599.842 262.342 597.611 268.72 593.148 273.367C588.685 278.014 582.446 280.337 574.431 280.337Z" fill="white"/>
<path d="M692.869 252.866V179.882H675.792V216.784C675.792 223.891 673.97 229.358 670.327 233.185C666.775 236.921 661.948 238.788 655.846 238.788C650.381 238.788 646.146 237.194 643.14 234.005C640.225 230.725 638.768 225.804 638.768 219.244V179.882H621.691V221.568C621.691 232.228 624.469 240.292 630.025 245.759C635.671 251.135 643.368 253.823 653.113 253.823C657.849 253.823 662.267 252.957 666.365 251.226C670.464 249.403 673.879 246.852 676.612 243.572V252.866H692.869Z" fill="white"/>
<path d="M756.625 179.062C765.824 179.062 773.201 181.75 778.757 187.126C784.313 192.502 787.091 200.474 787.091 211.044V252.866H770.013V213.231C770.013 206.852 768.51 202.069 765.505 198.88C762.499 195.6 758.218 193.96 752.663 193.96C746.378 193.96 741.414 195.873 737.771 199.7C734.128 203.436 732.306 208.857 732.306 215.964V252.866H715.229V179.882H731.487V189.313C734.31 185.941 737.862 183.39 742.143 181.659C746.424 179.928 751.251 179.062 756.625 179.062Z" fill="white"/>
<rect x="576.656" y="48.6116" width="28.9016" height="28.9016" fill="#001EF0"/>
</svg>