<svg width="252" height="3" fill="none" xmlns="http://www.w3.org/2000/svg">
  <path d="M.55 2.5a1 1 0 0 0 0-2v2Zm4.015-2a1 1 0 0 0 0 2v-2Zm.1 2a1 1 0 1 0 0-2v2Zm4.014-2a1 1 0 1 0 0 2v-2Zm.1 2a1 1 0 0 0 0-2v2Zm4.015-2a1 1 0 1 0 0 2v-2Zm.1 2a1 1 0 1 0 0-2v2Zm4.015-2a1 1 0 0 0 0 2v-2Zm.1 2a1 1 0 1 0 0-2v2Zm4.015-2a1 1 0 1 0 0 2v-2Zm.1 2a1 1 0 1 0 0-2v2Zm4.014-2a1 1 0 0 0 0 2v-2Zm.1 2a1 1 0 1 0 0-2v2Zm4.015-2a1 1 0 1 0 0 2v-2Zm.1 2a1 1 0 0 0 0-2v2Zm4.015-2a1 1 0 1 0 0 2v-2Zm.1 2a1 1 0 1 0 0-2v2Zm4.015-2a1 1 0 1 0 0 2v-2Zm.1 2a1 1 0 1 0 0-2v2Zm4.014-2a1 1 0 1 0 0 2v-2Zm.1 2a1 1 0 1 0 0-2v2Zm4.015-2a1 1 0 1 0 0 2v-2Zm.1 2a1 1 0 1 0 0-2v2Zm4.015-2a1 1 0 1 0 0 2v-2Zm.1 2a1 1 0 1 0 0-2v2Zm4.015-2a1 1 0 1 0 0 2v-2Zm.1 2a1 1 0 1 0 0-2v2Zm4.014-2a1 1 0 1 0 0 2v-2Zm.1 2a1 1 0 1 0 0-2v2Zm4.015-2a1 1 0 1 0 0 2v-2Zm.1 2a1 1 0 1 0 0-2v2Zm4.015-2a1 1 0 1 0 0 2v-2Zm.1 2a1 1 0 1 0 0-2v2Zm4.015-2a1 1 0 0 0 0 2v-2Zm.1 2a1 1 0 1 0 0-2v2Zm4.014-2a1 1 0 1 0 0 2v-2Zm.1 2a1 1 0 1 0 0-2v2Zm4.015-2a1 1 0 0 0 0 2v-2Zm.1 2a1 1 0 1 0 0-2v2Zm4.015-2a1 1 0 1 0 0 2v-2Zm.1 2a1 1 0 0 0 0-2v2Zm4.015-2a1 1 0 0 0 0 2v-2Zm.1 2a1 1 0 1 0 0-2v2Zm4.014-2a1 1 0 1 0 0 2v-2Zm.1 2a1 1 0 0 0 0-2v2Zm4.015-2a1 1 0 1 0 0 2v-2Zm.1 2a1 1 0 1 0 0-2v2Zm4.015-2a1 1 0 1 0 0 2v-2Zm.1 2a1 1 0 0 0 0-2v2Zm4.015-2a1 1 0 1 0 0 2v-2Zm.1 2a1 1 0 0 0 0-2v2Zm4.014-2a1 1 0 0 0 0 2v-2Zm.101 2a1 1 0 0 0 0-2v2Zm4.014-2a1 1 0 0 0 0 2v-2Zm.101 2a1 1 0 0 0 0-2v2Zm4.014-2a1 1 0 0 0 0 2v-2Zm.1 2a1 1 0 1 0 0-2v2Zm4.015-2a1 1 0 1 0 0 2v-2Zm.1 2a1 1 0 0 0 0-2v2Zm4.014-2a1 1 0 0 0 0 2v-2Zm.101 2a1 1 0 0 0 0-2v2Zm4.014-2a1 1 0 0 0 0 2v-2Zm.101 2a1 1 0 0 0 0-2v2Zm4.014-2a1 1 0 0 0 0 2v-2Zm.1 2a1 1 0 1 0 0-2v2Zm4.015-2a1 1 0 1 0 0 2v-2Zm.1 2a1 1 0 0 0 0-2v2Zm4.014-2a1 1 0 0 0 0 2v-2Zm.101 2a1 1 0 0 0 0-2v2Zm4.014-2a1 1 0 0 0 0 2v-2Zm.101 2a1 1 0 0 0 0-2v2Zm4.014-2a1 1 0 0 0 0 2v-2Zm.1 2a1 1 0 1 0 0-2v2Zm4.015-2a1 1 0 1 0 0 2v-2Zm.1 2a1 1 0 0 0 0-2v2Zm4.014-2a1 1 0 0 0 0 2v-2Zm.101 2a1 1 0 0 0 0-2v2Zm4.014-2a1 1 0 0 0 0 2v-2Zm.101 2a1 1 0 0 0 0-2v2Zm4.014-2a1 1 0 0 0 0 2v-2Zm.1 2a1 1 0 1 0 0-2v2Zm4.015-2a1 1 0 1 0 0 2v-2Zm.1 2a1 1 0 0 0 0-2v2Zm4.014-2a1 1 0 0 0 0 2v-2Zm.101 2a1 1 0 0 0 0-2v2Zm4.014-2a1 1 0 0 0 0 2v-2Zm.1 2a1 1 0 1 0 0-2v2Zm4.015-2a1 1 0 0 0 0 2v-2Zm.1 2a1 1 0 1 0 0-2v2Zm4.015-2a1 1 0 1 0 0 2v-2Zm.1 2a1 1 0 0 0 0-2v2Zm4.014-2a1 1 0 0 0 0 2v-2Zm.101 2a1 1 0 0 0 0-2v2Zm4.014-2a1 1 0 0 0 0 2v-2Zm.1 2a1 1 0 1 0 0-2v2Zm4.015-2a1 1 0 0 0 0 2v-2Zm.1 2a1 1 0 1 0 0-2v2Zm4.015-2a1 1 0 1 0 0 2v-2Zm.1 2a1 1 0 0 0 0-2v2Zm4.014-2a1 1 0 0 0 0 2v-2Zm.101 2a1 1 0 0 0 0-2v2Zm4.014-2a1 1 0 0 0 0 2v-2Zm.1 2a1 1 0 1 0 0-2v2Zm4.015-2a1 1 0 0 0 0 2v-2Zm.1 2a1 1 0 0 0 0-2v2Zm4.015-2a1 1 0 1 0 0 2v-2Zm.1 2a1 1 0 0 0 0-2v2Zm4.014-2a1 1 0 0 0 0 2v-2Zm.101 2a1 1 0 0 0 0-2v2Zm4.014-2a1 1 0 0 0 0 2v-2Zm.1 2a1 1 0 1 0 0-2v2Zm4.015-2a1 1 0 0 0 0 2v-2Zm.1 2a1 1 0 0 0 0-2v2Zm4.015-2a1 1 0 1 0 0 2v-2Zm.1 2a1 1 0 0 0 0-2v2Zm4.014-2a1 1 0 0 0 0 2v-2Zm.101 2a1 1 0 0 0 0-2v2Zm4.014-2a1 1 0 0 0 0 2v-2Zm.1 2a1 1 0 1 0 0-2v2Zm4.015-2a1 1 0 0 0 0 2v-2Zm.1 2a1 1 0 0 0 0-2v2Zm4.015-2a1 1 0 1 0 0 2v-2ZM.5 2.5h.05v-2H.5v2Zm4.065 0h.1v-2h-.1v2Zm4.114 0h.1v-2h-.1v2Zm4.115 0h.1v-2h-.1v2Zm4.115 0h.1v-2h-.1v2Zm4.115 0h.1v-2h-.1v2Zm4.114 0h.1v-2h-.1v2Zm4.115 0h.1v-2h-.1v2Zm4.115 0h.1v-2h-.1v2Zm4.115 0h.1v-2h-.1v2Zm4.114 0h.1v-2h-.1v2Zm4.115 0h.1v-2h-.1v2Zm4.115 0h.1v-2h-.1v2Zm4.115 0h.1v-2h-.1v2Zm4.114 0h.1v-2h-.1v2Zm4.115 0h.1v-2h-.1v2Zm4.115 0h.1v-2h-.1v2Zm4.115 0h.1v-2h-.1v2Zm4.114 0h.1v-2h-.1v2Zm4.115 0h.1v-2h-.1v2Zm4.115 0h.1v-2h-.1v2Zm4.115 0h.1v-2h-.1v2Zm4.114 0h.1v-2h-.1v2Zm4.115 0h.1v-2h-.1v2Zm4.115 0h.1v-2h-.1v2Zm4.115 0h.1v-2h-.1v2Zm4.114 0h.101v-2h-.101v2Zm4.115 0h.101v-2h-.101v2Zm4.115 0h.1v-2h-.1v2Zm4.115 0h.1v-2h-.1v2Zm4.114 0h.101v-2h-.101v2Zm4.115 0h.101v-2h-.101v2Zm4.115 0h.1v-2h-.1v2Zm4.115 0h.1v-2h-.1v2Zm4.114 0h.101v-2h-.101v2Zm4.115 0h.101v-2h-.101v2Zm4.115 0h.1v-2h-.1v2Zm4.115 0h.1v-2h-.1v2Zm4.114 0h.101v-2h-.101v2Zm4.115 0h.101v-2h-.101v2Zm4.115 0h.1v-2h-.1v2Zm4.115 0h.1v-2h-.1v2Zm4.114 0h.101v-2h-.101v2Zm4.115 0h.1v-2h-.1v2Zm4.115 0h.1v-2h-.1v2Zm4.115 0h.1v-2h-.1v2Zm4.114 0h.101v-2h-.101v2Zm4.115 0h.1v-2h-.1v2Zm4.115 0h.1v-2h-.1v2Zm4.115 0h.1v-2h-.1v2Zm4.114 0h.101v-2h-.101v2Zm4.115 0h.1v-2h-.1v2Zm4.115 0h.1v-2h-.1v2Zm4.115 0h.1v-2h-.1v2Zm4.114 0h.101v-2h-.101v2Zm4.115 0h.1v-2h-.1v2Zm4.115 0h.1v-2h-.1v2Zm4.115 0h.1v-2h-.1v2Zm4.114 0h.101v-2h-.101v2Zm4.115 0h.1v-2h-.1v2Zm4.115 0h.1v-2h-.1v2Zm4.115 0h.05v-2h-.05v2Z" fill="url(#a)"/>
  <defs>
    <linearGradient id="a" x1="248.5" y1="1.998" x2="0" y2="1.998" gradientUnits="userSpaceOnUse">
      <stop stopColor="#fff" stop-opacity="0"/>
      <stop offset=".50" stop-color="#fff"/>
      <stop offset="1" stop-color="#fff" stop-opacity="0"/>
    </linearGradient>
  </defs>
</svg>
