<svg width="252" height="20" viewBox="0 0 252 20" fill="none" xmlns="http://www.w3.org/2000/svg">
<path d="M0.5 6.87286L6.83335 0.5H12.0488L0.5 12.1209V6.87286ZM1.20182 19.5L20.084 0.5H25.2995L6.41731 19.5H1.20182ZM14.4525 19.5L33.3347 0.5H38.5502L19.668 19.5H14.4525ZM27.7031 19.5L46.5853 0.5H51.8008L32.9186 19.5H27.7031ZM40.9538 19.5L59.836 0.5H65.0515L46.1693 19.5H40.9538ZM54.2044 19.5L73.0866 0.5H78.3021L59.4199 19.5H54.2044ZM67.4551 19.5L86.3373 0.5H91.5528L72.6706 19.5H67.4551ZM80.7058 19.5L99.588 0.5H104.803L85.9213 19.5H80.7058ZM93.9564 19.5L112.839 0.5H118.054L99.1719 19.5H93.9564ZM107.207 19.5L126.089 0.5H131.305L112.423 19.5H107.207ZM251.5 13.1271L245.167 19.5H239.951L251.5 7.8791V13.1271ZM120.458 19.5L139.34 0.5H144.555L125.673 19.5H120.458ZM133.708 19.5L152.591 0.5H157.806L138.924 19.5H133.708ZM146.959 19.5L165.841 0.5H171.057L152.175 19.5H146.959ZM160.21 19.5L179.092 0.5H184.307L165.425 19.5H160.21ZM173.508 19.5L192.39 0.5H197.606L178.723 19.5H173.508ZM186.806 19.5L205.688 0.5H210.904L192.022 19.5H186.806ZM200.104 19.5L218.986 0.5H224.202L205.32 19.5H200.104ZM213.402 19.5L232.285 0.5H237.5L218.618 19.5H213.402ZM226.7 19.5L245.583 0.5H250.798L231.916 19.5H226.7Z" stroke="white"/>
</svg>
